#!OML:ASF Y:\EmotionMaleHayes\Project 1\Capture day 1\Session 1\Male1.ASF
:FULLY-SPECIFIED
:DEGREES
1777
root -28.8629 16.9861 0.240573 399.64 80.7886 403.436
lowerback 7.00733 1.09601 -11.1871
upperback 1.51099 0.681261 -0.984754
thorax -2.46636 0.437568 5.18733
lowerneck -22.8849 2.07423 3.59225
upperneck 22.3974 1.73837 -0.0440971
head 11.0784 1.13724 -0.324082
rclavicle -1.25483e-014 2.42517e-014
rhumerus -32.3447 -2.71759 -83.484
rradius 28.2085
rwrist 8.04774
rhand -10.6335 -31.2337
rfingers 7.12502
rthumb 15.3736 -60.6421
lclavicle -1.25483e-014 2.42517e-014
lhumerus -25.6862 -4.28038 91.4247
lradius 17.8767
lwrist -34.7433
lhand -1.37684 -26.2779
lfingers 7.12502
lthumb 24.271 2.20578
rfemur -4.35633 5.145 10.8104
rtibia 21.3762
rfoot -15.4872 -1.07855
rtoes 11.6251
lfemur 16.5034 2.67074 -25.8314
ltibia -0.266502
lfoot -14.0201 10.394
ltoes -12.0735
1778
root -28.8906 16.962 0.221238 400.746 80.3487 404.229
lowerback 6.72861 1.18143 -11.6454
upperback 1.51621 0.801337 -1.13628
thorax -2.32763 0.493988 5.27437
lowerneck -23.051 2.09946 3.84725
upperneck 22.0701 1.7511 -0.364024
head 10.9932 1.1159 -0.481201
rclavicle -8.30547e-015 -4.37326e-014
rhumerus -32.5588 -3.11402 -83.2126
rradius 28.1282
rwrist 7.84519
rhand -10.6337 -31.1882
rfingers 7.12502
rthumb 15.3733 -60.5967
lclavicle -8.30547e-015 -4.37326e-014
lhumerus -25.974 -4.60692 91.243
lradius 18.1078
lwrist -34.0964
lhand -1.11852 -25.6322
lfingers 7.12502
lthumb 24.5186 2.81818
rfemur -5.3273 4.95177 10.1705
rtibia 22.1901
rfoot -15.7053 -0.650277
rtoes 11.8291
lfemur 16.1935 2.65076 -26.4357
ltibia -0.490662
lfoot -14.0919 10.4326
ltoes -11.9061
1779
root -28.9193 16.95 0.204819 400.678 79.8974 404.237
lowerback 6.85024 1.34187 -12.0825
upperback 1.59651 0.975783 -1.22476
thorax -2.34524 0.583108 5.40712
lowerneck -23.1069 2.10244 3.84882
upperneck 21.7493 1.74924 -0.382704
head 10.8844 1.10656 -0.489407
rclavicle -1.38217e-014 0
rhumerus -32.9463 -3.45679 -82.9124
rradius 28.2401
rwrist 7.767
rhand -10.3887 -31.0997
rfingers 7.12502
rthumb 15.6093 -60.4899
lclavicle -1.38217e-014 0
lhumerus -26.3589 -4.59284 90.957
lradius 18.2444
lwrist -33.9697
lhand -2.14718 -25.5704
lfingers 7.12502
lthumb 23.5322 3.01003
rfemur -5.90486 4.92297 9.68303
rtibia 23.0069
rfoot -15.9506 -0.349478
rtoes 11.4636
lfemur 16.0118 3.61078 -26.4122
ltibia -0.139152
lfoot -14.2271 9.63377
ltoes -11.3485
1780
root -28.9464 16.9435 0.186719 400.925 79.6943 404.78
lowerback 7.272 1.39886 -12.3545
upperback 1.71259 0.983197 -1.27991
thorax -2.46148 0.592713 5.49486
lowerneck -22.9011 2.10753 3.68644
upperneck 21.246 1.79791 -0.314896
head 10.659 1.11642 -0.433885
rclavicle 9.62863e-015 -2.79292e-014
rhumerus -33.3594 -3.47339 -82.7074
rradius 28.4816
rwrist 7.67876
rhand -10.0619 -31.137
rfingers 7.12502
rthumb 15.924 -60.5024
lclavicle 9.62863e-015 -2.79292e-014
lhumerus -26.7583 -4.29426 90.572
lradius 18.5038
lwrist -33.368
lhand -1.88172 -25.5694
lfingers 7.12502
lthumb 23.7868 2.97818
rfemur -6.17017 4.72987 9.31783
rtibia 23.7614
rfoot -16.1649 -0.112054
rtoes 10.576
lfemur 16.0396 4.41956 -26.283
ltibia 0.252704
lfoot -14.3197 8.87996
ltoes -11.1027
1781
root -28.9747 16.9199 0.16614 401.047 79.2217 404.646
lowerback 7.12161 1.45957 -12.6396
upperback 1.69035 1.0635 -1.41331
thorax -2.41697 0.633716 5.50567
lowerneck -23.271 2.25013 3.97724
upperneck 21.1081 1.95105 -0.631541
head 10.6863 1.16452 -0.569647
rclavicle 1.58282e-014 4.63168e-014
rhumerus -33.6017 -3.54032 -82.559
rradius 28.5697
rwrist 7.54179
rhand -9.85253 -31.0679
rfingers 7.12502
rthumb 16.1257 -60.417
lclavicle 1.58282e-014 4.63168e-014
lhumerus -27.1115 -4.20193 90.1558
lradius 18.7136
lwrist -32.5519
lhand -0.853744 -25.6808
lfingers 7.12502
lthumb 24.7724 2.73489
rfemur -7.34643 4.44212 8.75107
rtibia 24.9215
rfoot -16.3327 0.355531
rtoes 9.92708
lfemur 15.7077 4.46826 -26.7999
ltibia 0.155707
lfoot -14.4468 9.02471
ltoes -10.601
1782
root -29.0001 16.9234 0.148495 402.553 79.0171 406.507
lowerback 7.65317 1.46169 -13.0635
upperback 1.82281 0.969036 -1.5205
thorax -2.5579 0.595962 5.63078
lowerneck -23.4369 2.32079 3.87577
upperneck 20.7957 2.05322 -0.570367
head 10.6023 1.20438 -0.514591
rclavicle -1.88348e-014 2.32578e-014
rhumerus -33.79 -3.56476 -82.3539
rradius 28.4878
rwrist 7.38796
rhand -9.79411 -30.714
rfingers 7.12502
rthumb 16.1819 -60.0586
lclavicle -1.88348e-014 2.32578e-014
lhumerus -27.5742 -4.5605 89.9559
lradius 18.9203
lwrist -31.5236
lhand -0.853744 -25.6808
lfingers 7.12502
lthumb 24.7724 2.73489
rfemur -7.31794 4.10665 8.13961
rtibia 25.4189
rfoot -16.4268 0.627911
rtoes 10.5705
lfemur 15.9813 4.49883 -27.2523
ltibia 0.0773919
lfoot -14.4449 8.79046
ltoes -10.1896
1783
root -29.0303 16.9189 0.135953 403.239 78.656 407.304
lowerback 7.91415 1.52283 -13.5617
upperback 1.89191 0.978803 -1.59126
thorax -2.63573 0.608287 5.8279
lowerneck -23.4761 2.36089 3.71543
upperneck 20.4058 2.14365 -0.522615
head 10.4659 1.23268 -0.458179
rclavicle -2.33324e-014 -3.3197e-014
rhumerus -33.9846 -3.5597 -82.1416
rradius 28.4111
rwrist 7.42358
rhand -9.76574 -30.4122
rfingers 7.12502
rthumb 16.2092 -59.7545
lclavicle -2.33324e-014 -3.3197e-014
lhumerus -28.0999 -4.74957 89.7879
lradius 19.2935
lwrist -30.4208
lhand -0.853744 -25.6808
lfingers 7.12502
lthumb 24.7724 2.73489
rfemur -7.53122 4.08591 7.63564
rtibia 25.7637
rfoot -16.5781 0.81088
rtoes 10.7613
lfemur 15.7366 5.90579 -27.0458
ltibia 0.541365
lfoot -14.2497 7.49093
ltoes -10.8865
1784
root -29.059 16.9113 0.119892 403.493 78.3547 407.643
lowerback 8.10559 1.60724 -13.8277
upperback 1.99758 1.05092 -1.71961
thorax -2.64424 0.644542 5.8287
lowerneck -23.6449 2.39259 3.89481
upperneck 20.1548 2.17215 -0.770613
head 10.4107 1.22373 -0.571636
rclavicle -2.62272e-014 2.94201e-014
rhumerus -34.1333 -4.03888 -81.9267
rradius 28.3352
rwrist 7.8159
rhand -9.66687 -30.4486
rfingers 7.12502
rthumb 16.3044 -59.7832
lclavicle -2.62272e-014 2.94201e-014
lhumerus -28.5354 -4.87901 89.477
lradius 19.6069
lwrist -29.5364
lhand -0.853744 -25.6808
lfingers 7.12502
lthumb 24.7724 2.73489
rfemur -7.69774 4.08525 7.24953
rtibia 26.0491
rfoot -16.8558 0.997399
rtoes 9.44537
lfemur 15.7757 5.82658 -27.4899
ltibia 0.349424
lfoot -14.0603 7.76652
ltoes -11.7415
1785
root -29.0846 16.905 0.102705 402.329 78.0957 406.558
lowerback 8.24398 1.74413 -13.8007
upperback 2.11537 1.22486 -1.80599
thorax -2.62799 0.726244 5.70082
lowerneck -23.8023 2.38992 4.08278
upperneck 19.9705 2.15572 -1.0372
head 10.377 1.19352 -0.699893
rclavicle -1.36416e-014 2.18663e-014
rhumerus -34.3037 -4.63762 -81.6788
rradius 28.2477
rwrist 8.19746
rhand -9.46642 -30.4908
rfingers 7.12502
rthumb 16.4974 -59.8094
lclavicle -1.36416e-014 2.18663e-014
lhumerus -28.9698 -5.17418 89.1722
lradius 19.881
lwrist -28.622
lhand -0.853744 -25.6808
lfingers 7.12502
lthumb 24.7724 2.73489
rfemur -7.91153 4.14027 7.13008
rtibia 26.4356
rfoot -17.2094 1.3727
rtoes 8.58013
lfemur 15.7194 6.57161 -27.2849
ltibia 0.509908
lfoot -13.9727 7.3252
ltoes -12.2164
1786
root -29.1118 16.8977 0.0898482 400.951 77.8362 405.222
lowerback 8.33228 1.88332 -13.7978
upperback 2.22516 1.40728 -1.84561
thorax -2.59487 0.810999 5.63554
lowerneck -24.1564 2.47604 4.29562
upperneck 19.7806 2.22278 -1.23152
head 10.3784 1.21103 -0.791564
rclavicle -3.6154e-015 8.54774e-015
rhumerus -34.4298 -4.92683 -81.506
rradius 28.1486
rwrist 8.30384
rhand -9.4566 -30.1748
rfingers 7.12502
rthumb 16.5069 -59.4927
lclavicle -3.6154e-015 8.54774e-015
lhumerus -29.3379 -5.61798 88.969
lradius 20.3012
lwrist -27.0961
lhand -5.79447 -26.526
lfingers 7.12502
lthumb 20.0299 2.46161
rfemur -8.39107 4.10145 7.03407
rtibia 27.1614
rfoot -17.6838 1.90876
rtoes 7.48432
lfemur 15.6136 7.13831 -27.0678
ltibia 0.692429
lfoot -14.1428 7.0021
ltoes -11.0171
1787
root -29.1362 16.8896 0.0786762 400.17 77.6193 404.548
lowerback 8.47415 1.98297 -13.8707
upperback 2.33097 1.52224 -1.88397
thorax -2.5834 0.864583 5.61984
lowerneck -24.3114 2.54877 4.41658
upperneck 19.5308 2.30901 -1.40576
head 10.3215 1.23339 -0.859331
rclavicle -1.2921e-015 6.55989e-015
rhumerus -34.607 -5.13171 -81.3674
rradius 28.1188
rwrist 8.30895
rhand -9.69021 -29.9746
rfingers 7.12502
rthumb 16.2819 -59.311
lclavicle -1.2921e-015 6.55989e-015
lhumerus -29.7272 -6.08274 88.7804
lradius 20.6177
lwrist -25.5605
lhand -11.6865 -28.1874
lfingers 7.12502
lthumb 14.3591 1.29601
rfemur -8.87731 4.04406 6.87233
rtibia 28.0363
rfoot -18.1666 2.41702
rtoes 6.32133
lfemur 15.6049 7.44924 -27.024
ltibia 0.816582
lfoot -14.3198 6.77156
ltoes -9.67603
1788
root -29.1558 16.8855 0.0654186 400.035 77.4174 404.601
lowerback 8.72011 2.04585 -13.9822
upperback 2.40412 1.56403 -1.9541
thorax -2.65009 0.88887 5.59706
lowerneck -24.2647 2.59464 4.42263
upperneck 19.2523 2.39527 -1.51865
head 10.2164 1.25614 -0.887688
rclavicle -9.93923e-015 1.45113e-014
rhumerus -34.9428 -5.44293 -81.1769
rradius 28.1911
rwrist 8.41154
rhand -9.8274 -30.3464
rfingers 7.12502
rthumb 16.1498 -59.6936
lclavicle -9.93923e-015 1.45113e-014
lhumerus -30.2047 -6.28897 88.5051
lradius 20.8272
lwrist -24.1877
lhand -11.4346 -28.6484
lfingers 7.12502
lthumb 14.6018 0.817628
rfemur -9.06456 3.93182 6.57888
rtibia 28.6044
rfoot -18.5309 2.88489
rtoes 6.18008
lfemur 15.6708 7.74712 -27.121
ltibia 0.937674
lfoot -14.3016 6.55334
ltoes -9.23437
1789
root -29.1768 16.8837 0.0497663 400.189 77.2469 404.939
lowerback 9.01707 2.0728 -14.0807
upperback 2.45731 1.5478 -2.03001
thorax -2.75447 0.887694 5.56641
lowerneck -24.2624 2.65111 4.28526
upperneck 19.0417 2.50916 -1.4813
head 10.1408 1.30035 -0.834378
rclavicle -1.2921e-014 -7.45443e-014
rhumerus -35.1969 -5.66854 -81.0081
rradius 28.147
rwrist 8.47333
rhand -9.90998 -30.5909
rfingers 7.12502
rthumb 16.0703 -59.9445
lclavicle -1.2921e-014 -7.45443e-014
lhumerus -30.6118 -6.29887 88.1999
lradius 20.9805
lwrist -22.9732
lhand -12.8687 -28.5995
lfingers 7.12502
lthumb 13.2198 0.961287
rfemur -9.12045 3.66077 6.20423
rtibia 29.0018
rfoot -18.8436 3.36251
rtoes 5.69685
lfemur 15.7285 7.79119 -27.3716
ltibia 1.01224
lfoot -14.2888 6.55412
ltoes -8.81915
1790
root -29.204 16.8796 0.0389081 399.108 77.2038 403.966
lowerback 9.30055 2.11762 -13.956
upperback 2.50654 1.57571 -1.98654
thorax -2.864 0.905659 5.53469
lowerneck -24.316 2.69351 4.11048
upperneck 18.8298 2.60872 -1.42335
head 10.0732 1.33765 -0.769725
rclavicle 1.65737e-014 8.94531e-015
rhumerus -35.3725 -5.6563 -80.8694
rradius 28.0495
rwrist 8.33863
rhand -9.94389 -30.2357
rfingers 7.12502
rthumb 16.0377 -59.5919
lclavicle 1.65737e-014 8.94531e-015
lhumerus -31.0254 -6.14554 87.8525
lradius 21.103
lwrist -22.3253
lhand -12.9794 -28.8673
lfingers 7.12502
lthumb 13.1131 0.700377
rfemur -9.30809 3.68407 6.27128
rtibia 29.5314
rfoot -19.1977 3.59231
rtoes 5.06477
lfemur 15.7298 7.78818 -27.2474
ltibia 1.0803
lfoot -14.3367 6.72253
ltoes -9.14473
1791
root -29.2301 16.8757 0.0339737 398.015 77.0958 402.9
lowerback 9.45203 2.18436 -13.9061
upperback 2.54419 1.6472 -1.94367
thorax -2.92235 0.942577 5.54057
lowerneck -24.3302 2.69261 3.9856
upperneck 18.5945 2.63783 -1.38733
head 9.98936 1.34401 -0.732535
rclavicle -1.51573e-015 -1.09332e-014
rhumerus -35.5406 -5.87287 -80.626
rradius 27.9005
rwrist 8.38044
rhand -9.72834 -29.755
rfingers 7.12502
rthumb 16.2452 -59.0944
lclavicle -1.51573e-015 -1.09332e-014
lhumerus -31.435 -5.97168 87.4939
lradius 21.254
lwrist -21.5331
lhand -13.9029 -28.7988
lfingers 7.12502
lthumb 12.2227 0.824063
rfemur -9.59432 3.82455 6.35766
rtibia 30.1342
rfoot -19.6082 3.39449
rtoes 4.10427
lfemur 15.6411 7.91576 -27.0789
ltibia 1.16793
lfoot -14.3098 6.8571
ltoes -9.65169
